<svg xmlns="http://www.w3.org/2000/svg" xmlns:xlink="http://www.w3.org/1999/xlink" viewBox="0 0 551.444 77.496"><defs><clipPath id="a"><polygon points="0.584 0.583 551.444 0.583 551.444 77.496 0.584 77.496 0.584 0.583 0.584 0.583" style="fill:none;clip-rule:evenodd"/></clipPath><clipPath id="b"><polygon points="0.584 51.858 550.86 51.858 550.86 64.094 0.584 64.094 0.584 51.858 0.584 51.858" style="fill:none;clip-rule:evenodd"/></clipPath><clipPath id="c"><polygon points="0.584 13.402 550.86 13.402 550.86 25.638 0.584 25.638 0.584 13.402 0.584 13.402" style="fill:none;clip-rule:evenodd"/></clipPath><clipPath id="d"><polygon points="0 0 551.444 0 551.444 77.496 0 77.496 0 0 0 0" style="fill:none;clip-rule:evenodd"/></clipPath></defs><g style="clip-path:url(#a)"><text transform="translate(13.416 9.32)" style="font-size:7.574803352355957px;fill:#040000;font-family:ArialMT, Arial;letter-spacing:-0.016992654107181395em">3<tspan x="4.084" y="0" style="letter-spacing:0.00006436611404235377em">1</tspan></text><text transform="translate(47.846 9.32)" style="font-size:7.574803352355957px;fill:#040000;font-family:ArialMT, Arial;letter-spacing:-0.016992654107181395em">3<tspan x="4.084" y="0" style="letter-spacing:0.00006436611404235377em">0</tspan></text><text transform="translate(82.275 9.32)" style="font-size:7.574803352355957px;fill:#040000;font-family:ArialMT, Arial;letter-spacing:-0.016992654107181395em">2<tspan x="4.084" y="0" style="letter-spacing:0.00006436611404235377em">9</tspan></text><text transform="translate(116.705 9.32)" style="font-size:7.574803352355957px;fill:#040000;font-family:ArialMT, Arial;letter-spacing:-0.016992654107181395em">2<tspan x="4.084" y="0" style="letter-spacing:0.00006436611404235377em">8</tspan></text><text transform="translate(151.135 9.32)" style="font-size:7.574803352355957px;fill:#040000;font-family:ArialMT, Arial;letter-spacing:-0.016992654107181395em">2<tspan x="4.084" y="0" style="letter-spacing:0.00006436611404235377em">7</tspan></text><text transform="translate(185.565 9.32)" style="font-size:7.574803352355957px;fill:#040000;font-family:ArialMT, Arial;letter-spacing:-0.016992654107181395em">2<tspan x="4.084" y="0" style="letter-spacing:0.00006436611404235377em">6</tspan></text><text transform="translate(219.994 9.32)" style="font-size:7.574803352355957px;fill:#040000;font-family:ArialMT, Arial;letter-spacing:-0.016992654107181395em">2<tspan x="4.084" y="0" style="letter-spacing:0.00006436611404235377em">5</tspan></text><text transform="translate(254.424 9.32)" style="font-size:7.574803352355957px;fill:#040000;font-family:ArialMT, Arial;letter-spacing:-0.016992654107181395em">2<tspan x="4.084" y="0" style="letter-spacing:0.00006436611404235377em">4</tspan></text><text transform="translate(288.854 9.32)" style="font-size:7.574803352355957px;fill:#040000;font-family:ArialMT, Arial"><tspan style="letter-spacing:-0.016992654107181395em">2</tspan><tspan x="4.084" y="0">3</tspan></text><text transform="translate(323.275 9.32)" style="font-size:7.574803352355957px;fill:#040000;font-family:ArialMT, Arial"><tspan style="letter-spacing:-0.016992654107181395em">2</tspan><tspan x="4.084" y="0">2</tspan></text><text transform="translate(357.705 9.32)" style="font-size:7.574803352355957px;fill:#040000;font-family:ArialMT, Arial"><tspan style="letter-spacing:-0.016992654107181395em">2</tspan><tspan x="4.084" y="0">1</tspan></text><text transform="translate(392.135 9.32)" style="font-size:7.574803352355957px;fill:#040000;font-family:ArialMT, Arial"><tspan style="letter-spacing:-0.016992654107181395em">2</tspan><tspan x="4.084" y="0">0</tspan></text><text transform="translate(426.565 9.32)" style="font-size:7.574803352355957px;fill:#040000;font-family:ArialMT, Arial"><tspan style="letter-spacing:-0.016992654107181395em">1</tspan><tspan x="4.084" y="0">9</tspan></text><text transform="translate(460.994 9.32)" style="font-size:7.574803352355957px;fill:#040000;font-family:ArialMT, Arial"><tspan style="letter-spacing:-0.016992654107181395em">1</tspan><tspan x="4.084" y="0">8</tspan></text><text transform="translate(495.424 9.32)" style="font-size:7.574803352355957px;fill:#040000;font-family:ArialMT, Arial"><tspan style="letter-spacing:-0.016992654107181395em">1</tspan><tspan x="4.084" y="0">7</tspan></text><text transform="translate(529.854 9.32)" style="font-size:7.574803352355957px;fill:#040000;font-family:ArialMT, Arial"><tspan style="letter-spacing:-0.016992654107181395em">1</tspan><tspan x="4.084" y="0">6</tspan></text><text transform="translate(14.01 34.96)" style="font-size:7.574803352355957px;fill:#040000;font-family:ArialMT, Arial"><tspan style="letter-spacing:-0.025038418362475612em">r</tspan><tspan x="2.333" y="0">w</tspan></text><text transform="translate(48.432 34.96)" style="font-size:7.574803352355957px;fill:#040000;font-family:ArialMT, Arial"><tspan style="letter-spacing:-0.025038418362475612em">r</tspan><tspan x="2.333" y="0">w</tspan></text><text transform="translate(82.861 34.96)" style="font-size:7.574803352355957px;fill:#040000;font-family:ArialMT, Arial"><tspan style="letter-spacing:-0.025038418362475612em">r</tspan><tspan x="2.333" y="0">w</tspan></text><text transform="translate(117.291 34.96)" style="font-size:7.574803352355957px;fill:#040000;font-family:ArialMT, Arial"><tspan style="letter-spacing:-0.025038418362475612em">r</tspan><tspan x="2.333" y="0">w</tspan></text><text transform="translate(151.721 34.96)" style="font-size:7.574803352355957px;fill:#040000;font-family:ArialMT, Arial"><tspan style="letter-spacing:-0.025038418362475612em">r</tspan><tspan x="2.333" y="0">w</tspan></text><text transform="translate(186.15 34.96)" style="font-size:7.574803352355957px;fill:#040000;font-family:ArialMT, Arial"><tspan style="letter-spacing:-0.025038418362475612em">r</tspan><tspan x="2.333" y="0">w</tspan></text><text transform="translate(220.58 34.96)" style="font-size:7.574803352355957px;fill:#040000;font-family:ArialMT, Arial"><tspan style="letter-spacing:-0.025038418362475612em">r</tspan><tspan x="2.333" y="0">w</tspan></text><text transform="translate(255.01 34.96)" style="font-size:7.574803352355957px;fill:#040000;font-family:ArialMT, Arial"><tspan style="letter-spacing:-0.025038418362475612em">r</tspan><tspan x="2.333" y="0">w</tspan></text><text transform="translate(289.432 34.96)" style="font-size:7.574803352355957px;fill:#040000;font-family:ArialMT, Arial;letter-spacing:-0.024974052248433257em">r<tspan x="2.333" y="0" style="letter-spacing:-0.00012873222808470753em">w</tspan></text><text transform="translate(323.861 34.96)" style="font-size:7.574803352355957px;fill:#040000;font-family:ArialMT, Arial;letter-spacing:-0.024974052248433257em">r<tspan x="2.333" y="0" style="letter-spacing:-0.00012873222808470753em">w</tspan></text><text transform="translate(358.291 34.96)" style="font-size:7.574803352355957px;fill:#040000;font-family:ArialMT, Arial;letter-spacing:-0.024974052248433257em">r<tspan x="2.333" y="0" style="letter-spacing:-0.00012873222808470753em">w</tspan></text><text transform="translate(392.721 34.96)" style="font-size:7.574803352355957px;fill:#040000;font-family:ArialMT, Arial;letter-spacing:-0.024974052248433257em">r<tspan x="2.333" y="0" style="letter-spacing:-0.00012873222808470753em">w</tspan></text><text transform="translate(427.15 34.96)" style="font-size:7.574803352355957px;fill:#040000;font-family:ArialMT, Arial;letter-spacing:-0.024974052248433257em">r<tspan x="2.333" y="0" style="letter-spacing:-0.00012873222808470753em">w</tspan></text><text transform="translate(461.58 34.96)" style="font-size:7.574803352355957px;fill:#040000;font-family:ArialMT, Arial;letter-spacing:-0.024974052248433257em">r<tspan x="2.333" y="0" style="letter-spacing:-0.00012873222808470753em">w</tspan></text><text transform="translate(496.01 34.96)" style="font-size:7.574803352355957px;fill:#040000;font-family:ArialMT, Arial;letter-spacing:-0.024974052248433257em">r<tspan x="2.333" y="0" style="letter-spacing:-0.00012873222808470753em">w</tspan></text><text transform="translate(530.44 34.96)" style="font-size:7.574803352355957px;fill:#040000;font-family:ArialMT, Arial;letter-spacing:-0.024974052248433257em">r<tspan x="2.333" y="0" style="letter-spacing:-0.00012873222808470753em">w</tspan></text><text transform="translate(13.416 47.781)" style="font-size:7.574803352355957px;fill:#040000;font-family:ArialMT, Arial;letter-spacing:-0.016992654107181395em">1<tspan x="4.084" y="0" style="letter-spacing:0.00006436611404235377em">5</tspan></text><text transform="translate(47.846 47.781)" style="font-size:7.574803352355957px;fill:#040000;font-family:ArialMT, Arial;letter-spacing:-0.016992654107181395em">1<tspan x="4.084" y="0" style="letter-spacing:0.00006436611404235377em">4</tspan></text><text transform="translate(82.275 47.781)" style="font-size:7.574803352355957px;fill:#040000;font-family:ArialMT, Arial;letter-spacing:-0.016992654107181395em">1<tspan x="4.084" y="0" style="letter-spacing:0.00006436611404235377em">3</tspan></text><text transform="translate(116.705 47.781)" style="font-size:7.574803352355957px;fill:#040000;font-family:ArialMT, Arial;letter-spacing:-0.016992654107181395em">1<tspan x="4.084" y="0" style="letter-spacing:0.00006436611404235377em">2</tspan></text><text transform="translate(151.135 47.781)" style="font-size:7.574803352355957px;fill:#040000;font-family:ArialMT, Arial;letter-spacing:-0.016992654107181395em">1<tspan x="4.084" y="0" style="letter-spacing:0.00006436611404235377em">1</tspan></text><text transform="translate(185.565 47.781)" style="font-size:7.574803352355957px;fill:#040000;font-family:ArialMT, Arial;letter-spacing:-0.016992654107181395em">1<tspan x="4.084" y="0" style="letter-spacing:0.00006436611404235377em">0</tspan></text><text transform="translate(222.322 47.781)" style="font-size:7.574803352355957px;fill:#040000;font-family:ArialMT, Arial">9</text><text transform="translate(256.752 47.781)" style="font-size:7.574803352355957px;fill:#040000;font-family:ArialMT, Arial">8</text><text transform="translate(291.182 47.781)" style="font-size:7.574803352355957px;fill:#040000;font-family:ArialMT, Arial">7</text><text transform="translate(325.611 47.781)" style="font-size:7.574803352355957px;fill:#040000;font-family:ArialMT, Arial">6</text><text transform="translate(360.041 47.781)" style="font-size:7.574803352355957px;fill:#040000;font-family:ArialMT, Arial">5</text><text transform="translate(394.471 47.781)" style="font-size:7.574803352355957px;fill:#040000;font-family:ArialMT, Arial">4</text><text transform="translate(428.9 47.781)" style="font-size:7.574803352355957px;fill:#040000;font-family:ArialMT, Arial">3</text><text transform="translate(463.33 47.781)" style="font-size:7.574803352355957px;fill:#040000;font-family:ArialMT, Arial">2</text><text transform="translate(497.76 47.781)" style="font-size:7.574803352355957px;fill:#040000;font-family:ArialMT, Arial">1</text><text transform="translate(532.19 47.781)" style="font-size:7.574803352355957px;fill:#040000;font-family:ArialMT, Arial">0</text><text transform="translate(14.01 73.413)" style="font-size:7.574803352355957px;fill:#040000;font-family:ArialMT, Arial"><tspan style="letter-spacing:-0.025038418362475612em">r</tspan><tspan x="2.333" y="0">w</tspan></text><text transform="translate(48.432 73.413)" style="font-size:7.574803352355957px;fill:#040000;font-family:ArialMT, Arial"><tspan style="letter-spacing:-0.025038418362475612em">r</tspan><tspan x="2.333" y="0">w</tspan></text><text transform="translate(82.861 73.413)" style="font-size:7.574803352355957px;fill:#040000;font-family:ArialMT, Arial"><tspan style="letter-spacing:-0.025038418362475612em">r</tspan><tspan x="2.333" y="0">w</tspan></text><text transform="translate(117.291 73.413)" style="font-size:7.574803352355957px;fill:#040000;font-family:ArialMT, Arial"><tspan style="letter-spacing:-0.025038418362475612em">r</tspan><tspan x="2.333" y="0">w</tspan></text><text transform="translate(151.721 73.413)" style="font-size:7.574803352355957px;fill:#040000;font-family:ArialMT, Arial"><tspan style="letter-spacing:-0.025038418362475612em">r</tspan><tspan x="2.333" y="0">w</tspan></text><text transform="translate(186.15 73.413)" style="font-size:7.574803352355957px;fill:#040000;font-family:ArialMT, Arial"><tspan style="letter-spacing:-0.025038418362475612em">r</tspan><tspan x="2.333" y="0">w</tspan></text><text transform="translate(220.58 73.413)" style="font-size:7.574803352355957px;fill:#040000;font-family:ArialMT, Arial"><tspan style="letter-spacing:-0.025038418362475612em">r</tspan><tspan x="2.333" y="0">w</tspan></text><text transform="translate(255.01 73.413)" style="font-size:7.574803352355957px;fill:#040000;font-family:ArialMT, Arial"><tspan style="letter-spacing:-0.025038418362475612em">r</tspan><tspan x="2.333" y="0">w</tspan></text><text transform="translate(289.432 73.413)" style="font-size:7.574803352355957px;fill:#040000;font-family:ArialMT, Arial;letter-spacing:-0.024974052248433257em">r<tspan x="2.333" y="0" style="letter-spacing:-0.00012873222808470753em">w</tspan></text><text transform="translate(323.861 73.413)" style="font-size:7.574803352355957px;fill:#040000;font-family:ArialMT, Arial;letter-spacing:-0.024974052248433257em">r<tspan x="2.333" y="0" style="letter-spacing:-0.00012873222808470753em">w</tspan></text><text transform="translate(358.291 73.413)" style="font-size:7.574803352355957px;fill:#040000;font-family:ArialMT, Arial;letter-spacing:-0.024974052248433257em">r<tspan x="2.333" y="0" style="letter-spacing:-0.00012873222808470753em">w</tspan></text><text transform="translate(392.721 73.413)" style="font-size:7.574803352355957px;fill:#040000;font-family:ArialMT, Arial;letter-spacing:-0.024974052248433257em">r<tspan x="2.333" y="0" style="letter-spacing:-0.00012873222808470753em">w</tspan></text><text transform="translate(427.15 73.413)" style="font-size:7.574803352355957px;fill:#040000;font-family:ArialMT, Arial;letter-spacing:-0.024974052248433257em">r<tspan x="2.333" y="0" style="letter-spacing:-0.00012873222808470753em">w</tspan></text><text transform="translate(461.58 73.413)" style="font-size:7.574803352355957px;fill:#040000;font-family:ArialMT, Arial;letter-spacing:-0.024974052248433257em">r<tspan x="2.333" y="0" style="letter-spacing:-0.00012873222808470753em">w</tspan></text><text transform="translate(496.01 73.413)" style="font-size:7.574803352355957px;fill:#040000;font-family:ArialMT, Arial;letter-spacing:-0.024974052248433257em">r<tspan x="2.333" y="0" style="letter-spacing:-0.00012873222808470753em">w</tspan></text><text transform="translate(530.44 73.413)" style="font-size:7.574803352355957px;fill:#040000;font-family:ArialMT, Arial;letter-spacing:-0.024974052248433257em">r<tspan x="2.333" y="0" style="letter-spacing:-0.00012873222808470753em">w</tspan></text></g><g style="clip-path:url(#b)"><text transform="translate(257.338 60.593)" style="font-size:7.574803352355957px;fill:#040000;font-family:ArialMT, Arial"><tspan style="letter-spacing:0.025038418362475612em">V</tspan><tspan x="5.242" y="0" style="letter-spacing:-0.02902911743310154em">D</tspan><tspan x="10.492" y="0" style="letter-spacing:-0.046987263250918246em">I</tspan><tspan x="12.241" y="0" style="letter-spacing:0.025038418362475612em">V</tspan><tspan x="17.482" y="0" style="letter-spacing:0.02902911743310154em">[</tspan><tspan x="19.807" y="0" style="letter-spacing:-0.016992654107181395em">15</tspan><tspan x="27.974" y="0" style="letter-spacing:0.029093483547143896em">:</tspan><tspan x="30.299" y="0" style="letter-spacing:-0.016992654107181395em">0</tspan><tspan x="34.383" y="0">]</tspan></text></g><g style="clip-path:url(#c)"><text transform="translate(255.588 22.132)" style="font-size:7.574803352355957px;fill:#040000;font-family:ArialMT, Arial"><tspan style="letter-spacing:0.025038418362475612em">V</tspan><tspan x="5.242" y="0" style="letter-spacing:-0.02902911743310154em">D</tspan><tspan x="10.492" y="0" style="letter-spacing:-0.046987263250918246em">I</tspan><tspan x="12.241" y="0" style="letter-spacing:0.025038418362475612em">V</tspan><tspan x="17.482" y="0" style="letter-spacing:0.02902911743310154em">[</tspan><tspan x="19.807" y="0" style="letter-spacing:-0.016992654107181395em">31</tspan><tspan x="27.974" y="0" style="letter-spacing:0.029093483547143896em">:</tspan><tspan x="30.299" y="0" style="letter-spacing:-0.016992654107181395em">16</tspan><tspan x="38.467" y="0">]</tspan></text></g><g style="clip-path:url(#d)"><polyline points="0 12.819 0 39.039 0.584 39.039 0.584 12.819 0 12.819" style="fill:#040000;fill-rule:evenodd"/><polyline points="550.86 13.402 550.86 39.039 551.444 39.039 551.444 13.402 550.86 13.402" style="fill:#040000;fill-rule:evenodd"/><polyline points="34.429 26.22 34.429 39.039 35.012 39.039 35.012 26.22 34.429 26.22" style="fill:#040000;fill-rule:evenodd"/><polyline points="68.858 26.22 68.858 39.039 69.441 39.039 69.441 26.22 68.858 26.22" style="fill:#040000;fill-rule:evenodd"/><polyline points="103.286 26.22 103.286 39.039 103.87 39.039 103.87 26.22 103.286 26.22" style="fill:#040000;fill-rule:evenodd"/><polyline points="137.715 26.22 137.715 39.039 138.299 39.039 138.299 26.22 137.715 26.22" style="fill:#040000;fill-rule:evenodd"/><polyline points="172.144 26.22 172.144 39.039 172.727 39.039 172.727 26.22 172.144 26.22" style="fill:#040000;fill-rule:evenodd"/><polyline points="206.573 26.22 206.573 39.039 207.156 39.039 207.156 26.22 206.573 26.22" style="fill:#040000;fill-rule:evenodd"/><polyline points="241.001 26.22 241.001 39.039 241.585 39.039 241.585 26.22 241.001 26.22" style="fill:#040000;fill-rule:evenodd"/><polyline points="275.43 26.22 275.43 39.039 276.014 39.039 276.014 26.22 275.43 26.22" style="fill:#040000;fill-rule:evenodd"/><polyline points="309.859 26.22 309.859 39.039 310.442 39.039 310.442 26.22 309.859 26.22" style="fill:#040000;fill-rule:evenodd"/><polyline points="344.288 26.22 344.288 39.039 344.871 39.039 344.871 26.22 344.288 26.22" style="fill:#040000;fill-rule:evenodd"/><polyline points="378.716 26.22 378.716 39.039 379.3 39.039 379.3 26.22 378.716 26.22" style="fill:#040000;fill-rule:evenodd"/><polyline points="413.145 26.22 413.145 39.039 413.729 39.039 413.729 26.22 413.145 26.22" style="fill:#040000;fill-rule:evenodd"/><polyline points="447.574 26.22 447.574 39.039 448.157 39.039 448.157 26.22 447.574 26.22" style="fill:#040000;fill-rule:evenodd"/><polyline points="482.003 26.22 482.003 39.039 482.586 39.039 482.586 26.22 482.003 26.22" style="fill:#040000;fill-rule:evenodd"/><polyline points="516.431 26.22 516.431 39.039 517.015 39.039 517.015 26.22 516.431 26.22" style="fill:#040000;fill-rule:evenodd"/><polyline points="0 51.276 0 77.496 0.584 77.496 0.584 51.276 0 51.276" style="fill:#040000;fill-rule:evenodd"/><polyline points="550.86 51.858 550.86 77.496 551.444 77.496 551.444 51.858 550.86 51.858" style="fill:#040000;fill-rule:evenodd"/><polyline points="34.429 64.677 34.429 77.496 35.012 77.496 35.012 64.677 34.429 64.677" style="fill:#040000;fill-rule:evenodd"/><polyline points="68.858 64.677 68.858 77.496 69.441 77.496 69.441 64.677 68.858 64.677" style="fill:#040000;fill-rule:evenodd"/><polyline points="103.286 64.677 103.286 77.496 103.87 77.496 103.87 64.677 103.286 64.677" style="fill:#040000;fill-rule:evenodd"/><polyline points="137.715 64.677 137.715 77.496 138.299 77.496 138.299 64.677 137.715 64.677" style="fill:#040000;fill-rule:evenodd"/><polyline points="172.144 64.677 172.144 77.496 172.727 77.496 172.727 64.677 172.144 64.677" style="fill:#040000;fill-rule:evenodd"/><polyline points="206.573 64.677 206.573 77.496 207.156 77.496 207.156 64.677 206.573 64.677" style="fill:#040000;fill-rule:evenodd"/><polyline points="241.001 64.677 241.001 77.496 241.585 77.496 241.585 64.677 241.001 64.677" style="fill:#040000;fill-rule:evenodd"/><polyline points="275.43 64.677 275.43 77.496 276.014 77.496 276.014 64.677 275.43 64.677" style="fill:#040000;fill-rule:evenodd"/><polyline points="309.859 64.677 309.859 77.496 310.442 77.496 310.442 64.677 309.859 64.677" style="fill:#040000;fill-rule:evenodd"/><polyline points="344.288 64.677 344.288 77.496 344.871 77.496 344.871 64.677 344.288 64.677" style="fill:#040000;fill-rule:evenodd"/><polyline points="378.716 64.677 378.716 77.496 379.3 77.496 379.3 64.677 378.716 64.677" style="fill:#040000;fill-rule:evenodd"/><polyline points="413.145 64.677 413.145 77.496 413.729 77.496 413.729 64.677 413.145 64.677" style="fill:#040000;fill-rule:evenodd"/><polyline points="447.574 64.677 447.574 77.496 448.157 77.496 448.157 64.677 447.574 64.677" style="fill:#040000;fill-rule:evenodd"/><polyline points="482.003 64.677 482.003 77.496 482.586 77.496 482.586 64.677 482.003 64.677" style="fill:#040000;fill-rule:evenodd"/><polyline points="516.431 64.677 516.431 77.496 517.015 77.496 517.015 64.677 516.431 64.677" style="fill:#040000;fill-rule:evenodd"/><polyline points="0.584 12.819 0.584 13.402 551.444 13.402 551.444 12.819 0.584 12.819" style="fill:#040000;fill-rule:evenodd"/><polyline points="0.584 25.638 0.584 26.22 551.444 26.22 551.444 25.638 0.584 25.638" style="fill:#040000;fill-rule:evenodd"/><polyline points="0.584 38.457 0.584 39.039 551.444 39.039 551.444 38.457 0.584 38.457" style="fill:#040000;fill-rule:evenodd"/><polyline points="0.584 51.276 0.584 51.858 551.444 51.858 551.444 51.276 0.584 51.276" style="fill:#040000;fill-rule:evenodd"/><polyline points="0.584 64.094 0.584 64.677 551.444 64.677 551.444 64.094 0.584 64.094" style="fill:#040000;fill-rule:evenodd"/><polyline points="0.584 76.913 0.584 77.496 551.444 77.496 551.444 76.913 0.584 76.913" style="fill:#040000;fill-rule:evenodd"/></g></svg>