<svg width="1384" height="987" xmlns="http://www.w3.org/2000/svg" xmlns:xlink="http://www.w3.org/1999/xlink" xml:space="preserve" overflow="hidden"><defs><clipPath id="clip0"><rect x="1288" y="870" width="1384" height="987"/></clipPath></defs><g clip-path="url(#clip0)" transform="translate(-1288 -870)"><path d="M1288 1378 1442.99 1378" stroke="#B4C7E7" stroke-width="10.3125" stroke-miterlimit="8" fill="none" fill-rule="evenodd"/><path d="M2479.5 1538.5 2656.49 1538.5" stroke="#2F5597" stroke-width="20.625" stroke-linecap="square" stroke-miterlimit="8" fill="none" fill-rule="evenodd"/><path d="M2479.5 1427.5 2656.49 1427.5" stroke="#2F5597" stroke-width="20.625" stroke-linecap="square" stroke-miterlimit="8" fill="none" fill-rule="evenodd"/><path d="M2479 1060 2655.99 1060" stroke="#2F5597" stroke-width="10.3125" stroke-linecap="square" stroke-miterlimit="8" fill="none" fill-rule="evenodd"/><path d="M2479 1180 2655.99 1180" stroke="#2F5597" stroke-width="10.3125" stroke-linecap="square" stroke-miterlimit="8" fill="none" fill-rule="evenodd"/><path d="M2479 1300 2655.99 1300" stroke="#2F5597" stroke-width="10.3125" stroke-linecap="square" stroke-miterlimit="8" fill="none" fill-rule="evenodd"/><path d="M1288 1138 1442.99 1138" stroke="#B4C7E7" stroke-width="10.3125" stroke-miterlimit="8" fill="none" fill-rule="evenodd"/><path d="M1288 1259 1464.99 1259" stroke="#B4C7E7" stroke-width="10.3125" stroke-miterlimit="8" fill="none" fill-rule="evenodd"/><path d="M1386.5 951.632C1386.5 908.481 1421.48 873.5 1464.63 873.5L2465.37 873.5C2508.52 873.5 2543.5 908.481 2543.5 951.632L2543.5 1664.37C2543.5 1707.52 2508.52 1742.5 2465.37 1742.5L1464.63 1742.5C1421.48 1742.5 1386.5 1707.52 1386.5 1664.37Z" stroke="#2F5597" stroke-width="6.875" stroke-miterlimit="8" fill="#DAE3F3" fill-rule="evenodd"/><text font-family="Arial,Arial_MSFontService,sans-serif" font-weight="700" font-size="73" transform="matrix(1 0 0 1 2121.52 1072)">Virtual Trig<tspan font-size="73" x="53.2813" y="124">Ex/In Trig</tspan><tspan font-size="73" x="237.76" y="247">CLR</tspan><tspan font-size="73" x="-101.406" y="370">Cam </tspan><tspan font-size="73" x="77.9165" y="370">Div</tspan><tspan font-size="73" x="191.927" y="370">[31:0]</tspan><tspan font-size="73" x="-134.063" y="493">Valve </tspan><tspan font-size="73" x="77.9165" y="493">Div</tspan><tspan font-size="73" x="191.927" y="493">[31:0]</tspan><tspan fill="#767171" font-size="73" x="-702.381" y="85">Cam </tspan><tspan fill="#767171" font-size="73" x="-523.058" y="85">Trig</tspan><tspan fill="#767171" font-size="73" x="-702.381" y="209">Valve Trig</tspan><tspan fill="#767171" font-size="73" x="-702.381" y="332">Encoder </tspan><tspan fill="#767171" font-size="73" x="-388.996" y="332">In</tspan></text></g></svg>