<svg width="1226" height="662" xmlns="http://www.w3.org/2000/svg" xmlns:xlink="http://www.w3.org/1999/xlink" xml:space="preserve" overflow="hidden"><defs><clipPath id="clip0"><rect x="1440" y="922" width="1226" height="662"/></clipPath></defs><g clip-path="url(#clip0)" transform="translate(-1440 -922)"><path d="M1440 1415 1594.99 1415" stroke="#B4C7E7" stroke-width="10.3125" stroke-miterlimit="8" fill="none" fill-rule="evenodd"/><path d="M1467 1140 1621.66 1140" stroke="#2F5597" stroke-width="10.3125" stroke-linecap="square" stroke-miterlimit="8" fill="none" fill-rule="evenodd"/><path d="M2504 1228 2658.66 1228" stroke="#2F5597" stroke-width="10.3125" stroke-linecap="square" stroke-miterlimit="8" fill="none" fill-rule="evenodd"/><path d="M1551.5 984.391C1551.5 951.866 1577.87 925.5 1610.39 925.5L2503.61 925.5C2536.13 925.5 2562.5 951.866 2562.5 984.391L2562.5 1521.61C2562.5 1554.13 2536.13 1580.5 2503.61 1580.5L1610.39 1580.5C1577.87 1580.5 1551.5 1554.13 1551.5 1521.61Z" stroke="#2F5597" stroke-width="6.875" stroke-miterlimit="8" fill="#DAE3F3" fill-rule="evenodd"/><text font-family="Arial,Arial_MSFontService,sans-serif" font-weight="700" font-size="73" transform="matrix(1 0 0 1 2378.67 1268)">SPD<tspan font-size="73" x="-800.976" y="-85">EN</tspan><tspan fill="#767171" font-size="73" x="-800.976" y="162">FAN</tspan></text></g></svg>