<svg width="1398" height="862" xmlns="http://www.w3.org/2000/svg" xmlns:xlink="http://www.w3.org/1999/xlink" xml:space="preserve" overflow="hidden"><defs><clipPath id="clip0"><rect x="1180" y="712" width="1398" height="862"/></clipPath></defs><g clip-path="url(#clip0)" transform="translate(-1180 -712)"><path d="M1180 1330 1356.99 1330" stroke="#2F5597" stroke-width="10.3125" stroke-miterlimit="8" fill="none" fill-rule="evenodd"/><path d="M1180 1214 1356.99 1214" stroke="#2F5597" stroke-width="10.3125" stroke-miterlimit="8" fill="none" fill-rule="evenodd"/><path d="M1180 1087 1356.99 1087" stroke="#2F5597" stroke-width="10.3125" stroke-miterlimit="8" fill="none" fill-rule="evenodd"/><path d="M2385.5 855.5 2562.49 855.5" stroke="#B4C7E7" stroke-width="20.625" stroke-linecap="square" stroke-miterlimit="8" fill="none" fill-rule="evenodd"/><path d="M2385 973 2561.99 973.001" stroke="#2F5597" stroke-width="10.3125" stroke-linecap="square" stroke-miterlimit="8" fill="none" fill-rule="evenodd"/><path d="M2385 1093 2561.99 1093" stroke="#2F5597" stroke-width="10.3125" stroke-linecap="square" stroke-miterlimit="8" fill="none" fill-rule="evenodd"/><path d="M2385 1214 2561.99 1214" stroke="#2F5597" stroke-width="10.3125" stroke-linecap="square" stroke-miterlimit="8" fill="none" fill-rule="evenodd"/><path d="M2385 1330 2561.99 1330" stroke="#2F5597" stroke-width="10.3125" stroke-linecap="square" stroke-miterlimit="8" fill="none" fill-rule="evenodd"/><path d="M2385.5 1447.5 2562.49 1447.5" stroke="#2F5597" stroke-width="20.625" stroke-linecap="square" stroke-miterlimit="8" fill="none" fill-rule="evenodd"/><path d="M1180 844 1334.99 844" stroke="#B4C7E7" stroke-width="10.3125" stroke-miterlimit="8" fill="none" fill-rule="evenodd"/><path d="M1180 962 1356.99 962.001" stroke="#B4C7E7" stroke-width="10.3125" stroke-miterlimit="8" fill="none" fill-rule="evenodd"/><path d="M1289.5 792.373C1289.5 749.917 1323.92 715.5 1366.37 715.5L2369.63 715.5C2412.08 715.5 2446.5 749.917 2446.5 792.373L2446.5 1493.63C2446.5 1536.08 2412.08 1570.5 2369.63 1570.5L1366.37 1570.5C1323.92 1570.5 1289.5 1536.08 1289.5 1493.63Z" stroke="#2F5597" stroke-width="6.875" stroke-miterlimit="8" fill="#DAE3F3" fill-rule="evenodd"/><text fill="#767171" font-family="Arial,Arial_MSFontService,sans-serif" font-weight="700" font-size="73" transform="matrix(1 0 0 1 1874.98 867)">DT_OUT<tspan font-size="73" x="292.76" y="0">[</tspan><tspan font-size="73" x="317.396" y="0">383:0</tspan><tspan font-size="73" x="504.74" y="0">]</tspan><tspan fill="#000000" font-size="73" x="236.615" y="124">xEMPTY</tspan><tspan fill="#000000" font-size="73" x="342.604" y="247">FULL</tspan><tspan fill="#000000" font-size="73" x="-72.7605" y="370">ALMOST_EMPTY</tspan><tspan fill="#000000" font-size="73" x="-7.448" y="493">ALMOST_FULL</tspan><tspan fill="#000000" font-size="73" x="73.3333" y="616">COUNT[11:0]</tspan><tspan font-size="73" x="-518.112" y="0">FIFO_VALID</tspan><tspan font-size="73" x="-518.112" y="124">RD_SYN</tspan><tspan fill="#000000" font-size="73" x="-518.112" y="247">WR_SYN</tspan><tspan fill="#000000" font-size="73" x="-518.112" y="370">CLEAR</tspan><tspan fill="#000000" font-size="73" x="-518.112" y="493">DT_IN</tspan><tspan fill="#000000" font-size="73" x="-306.705" y="493">[383:0]</tspan></text></g></svg>